<svg width="20" height="17" viewBox="0 0 20 17" fill="none" xmlns="http://www.w3.org/2000/svg">
<path d="M5.53125 0.1875C7.19271 0.1875 8.68229 0.860677 10 2.20703C11.3177 0.860677 12.8073 0.1875 14.4688 0.1875C15.901 0.1875 17.1185 0.703125 18.1211 1.73438C19.1237 2.73698 19.625 3.9401 19.625 5.34375C19.625 5.91667 19.4818 6.50391 19.1953 7.10547C18.9089 7.67839 18.6224 8.10807 18.3359 8.39453L17.9062 8.78125L10.5156 16.2578L10 16.7734L9.48438 16.2578L2.09375 8.78125C1.80729 8.52344 1.52083 8.19401 1.23438 7.79297C0.661458 6.93359 0.375 6.11719 0.375 5.34375C0.375 3.9401 0.876302 2.73698 1.87891 1.73438C2.88151 0.703125 4.09896 0.1875 5.53125 0.1875ZM5.53125 1.5625C4.5 1.5625 3.61198 1.9349 2.86719 2.67969C2.1224 3.42448 1.75 4.3125 1.75 5.34375C1.75 5.83073 1.95052 6.38932 2.35156 7.01953L3.03906 7.83594L10 14.7969L16.9609 7.83594C17.8203 6.89062 18.25 6.0599 18.25 5.34375C18.25 4.3125 17.8776 3.42448 17.1328 2.67969C16.388 1.9349 15.5 1.5625 14.4688 1.5625C13.8672 1.5625 13.237 1.73438 12.5781 2.07812C11.9193 2.39323 11.4036 2.72266 11.0312 3.06641L10.5156 3.53906L10 4.14062L9.48438 3.53906C9.34115 3.39583 9.14062 3.22396 8.88281 3.02344C8.65365 2.79427 8.18099 2.49349 7.46484 2.12109C6.77734 1.7487 6.13281 1.5625 5.53125 1.5625Z" fill="#202224"/>
</svg>
