<svg width="60" height="60" viewBox="0 0 60 60" fill="none" xmlns="http://www.w3.org/2000/svg">
<path opacity="0.21" fill-rule="evenodd" clip-rule="evenodd" d="M0 30V37C0 49.7025 10.2975 60 23 60H30H37C49.7025 60 60 49.7025 60 37V30V23C60 10.2975 49.7025 0 37 0H30H23C10.2975 0 0 10.2975 0 23V30Z" fill="#4AD991"/>
<path d="M19.1111 40.8889H42.4444C43.3036 40.8889 44 41.5853 44 42.4444C44 43.3036 43.3036 44 42.4444 44H17.5556C16.6964 44 16 43.3036 16 42.4444V17.5556C16 16.6964 16.6964 16 17.5556 16C18.4147 16 19.1111 16.6964 19.1111 17.5556V40.8889Z" fill="#4AD991"/>
<path opacity="0.5" d="M24.9126 34.175C24.325 34.8018 23.3406 34.8335 22.7139 34.2459C22.0871 33.6584 22.0554 32.674 22.643 32.0472L28.4763 25.825C29.0445 25.2188 29.9888 25.1663 30.6209 25.7056L35.2249 29.6344L41.2235 22.0361C41.7559 21.3618 42.734 21.2467 43.4083 21.7791C44.0826 22.3114 44.1977 23.2896 43.6654 23.9639L36.6654 32.8306C36.1186 33.5231 35.1059 33.6227 34.4347 33.05L29.7306 29.0358L24.9126 34.175Z" fill="#4AD991"/>
</svg>
