<svg width="60" height="60" viewBox="0 0 60 60" fill="none" xmlns="http://www.w3.org/2000/svg">
<path opacity="0.3" fill-rule="evenodd" clip-rule="evenodd" d="M0 30V37C0 49.7025 10.2975 60 23 60H30H37C49.7025 60 60 49.7025 60 37V30V23C60 10.2975 49.7025 0 37 0H30H23C10.2975 0 0 10.2975 0 23V30Z" fill="#FF9066"/>
<path opacity="0.78" fill-rule="evenodd" clip-rule="evenodd" d="M28.6312 23.8088C28.6512 23.5483 28.8684 23.3472 29.1297 23.3472H29.5475C29.8044 23.3472 30.0195 23.5418 30.045 23.7974L30.6667 30.0139L35.0814 32.5366C35.2372 32.6256 35.3333 32.7913 35.3333 32.9707V33.3592C35.3333 33.6889 35.0199 33.9284 34.7018 33.8416L28.3987 32.1226C28.1673 32.0595 28.0133 31.841 28.0317 31.6019L28.6312 23.8088Z" fill="#FF9066"/>
<path opacity="0.901274" fill-rule="evenodd" clip-rule="evenodd" d="M22.7218 14.9844C22.4577 14.6696 21.9477 14.7901 21.8524 15.1898L20.2189 22.0379C20.1412 22.3636 20.3993 22.6721 20.7336 22.6531L27.7783 22.2539C28.1892 22.2306 28.3976 21.7486 28.133 21.4333L26.3316 19.2865C27.4965 18.8884 28.7317 18.6805 30 18.6805C36.2592 18.6805 41.3333 23.7546 41.3333 30.0139C41.3333 36.2731 36.2592 41.3472 30 41.3472C23.7408 41.3472 18.6667 36.2731 18.6667 30.0139C18.6667 28.9631 18.809 27.9339 19.0864 26.9448L16.5188 26.2246C16.1808 27.4298 16 28.7007 16 30.0139C16 37.7458 22.268 44.0139 30 44.0139C37.732 44.0139 44 37.7458 44 30.0139C44 22.2819 37.732 16.0139 30 16.0139C28.0551 16.0139 26.2029 16.4104 24.5197 17.1271L22.7218 14.9844Z" fill="#FF9066"/>
</svg>
