<svg width="60" height="60" viewBox="0 0 60 60" fill="none" xmlns="http://www.w3.org/2000/svg">
<path opacity="0.21" fill-rule="evenodd" clip-rule="evenodd" d="M0 30V37C0 49.7025 10.2975 60 23 60H30H37C49.7025 60 60 49.7025 60 37V30V23C60 10.2975 49.7025 0 37 0H30H23C10.2975 0 0 10.2975 0 23V30Z" fill="#FEC53D"/>
<path fill-rule="evenodd" clip-rule="evenodd" d="M15 24.3165L27.9005 31.7646C28.0394 31.8448 28.1851 31.9027 28.3333 31.9395V46.3847L15.9201 39.0385C15.3498 38.701 15 38.0876 15 37.4249V24.3165ZM45 24.1185V37.4249C45 38.0876 44.6502 38.701 44.0799 39.0385L31.6667 46.3847V31.8129L31.7566 31.7646L45 24.1185Z" fill="#FEC53D"/>
<path opacity="0.499209" fill-rule="evenodd" clip-rule="evenodd" d="M15.4052 20.7014C15.5628 20.5024 15.7617 20.3343 15.9936 20.2108L29.1186 13.2201C29.6695 12.9266 30.3304 12.9266 30.8814 13.2201L44.0064 20.2108C44.1852 20.306 44.3443 20.4277 44.48 20.5697L30.0899 28.8778C29.9953 28.9325 29.908 28.995 29.8285 29.064C29.749 28.995 29.6618 28.9325 29.5671 28.8778L15.4052 20.7014Z" fill="#FEC53D"/>
</svg>
