<svg width="18" height="17" viewBox="0 0 18 17" fill="none" xmlns="http://www.w3.org/2000/svg">
<path d="M8.3125 0.5H9.6875V8.75H8.3125V0.5ZM6.25 0.972656V2.47656C5.01823 2.99219 4.01562 3.82292 3.24219 4.96875C2.4974 6.11458 2.125 7.375 2.125 8.75C2.125 10.6406 2.79818 12.2591 4.14453 13.6055C5.49089 14.9518 7.10938 15.625 9 15.625C10.8906 15.625 12.5091 14.9518 13.8555 13.6055C15.2018 12.2591 15.875 10.6406 15.875 8.75C15.875 7.375 15.4883 6.11458 14.7148 4.96875C13.9701 3.82292 12.9818 2.99219 11.75 2.47656V0.972656C13.3828 1.54557 14.7005 2.54818 15.7031 3.98047C16.7344 5.38411 17.25 6.97396 17.25 8.75C17.25 11.013 16.4336 12.9609 14.8008 14.5938C13.1966 16.1979 11.263 17 9 17C6.73698 17 4.78906 16.1979 3.15625 14.5938C1.55208 12.9609 0.75 11.013 0.75 8.75C0.75 6.97396 1.2513 5.38411 2.25391 3.98047C3.28516 2.54818 4.61719 1.54557 6.25 0.972656Z" fill="#202224"/>
</svg>
