<svg width="15" height="16" viewBox="0 0 15 16" fill="none" xmlns="http://www.w3.org/2000/svg">
<path d="M3.91797 1.60547C4.86328 0.660156 5.99479 0.1875 7.3125 0.1875C8.63021 0.1875 9.76172 0.660156 10.707 1.60547C11.6523 2.55078 12.125 3.68229 12.125 5C12.125 5.80208 11.9245 6.5612 11.5234 7.27734C11.151 7.99349 10.6354 8.56641 9.97656 8.99609C11.237 9.54036 12.2539 10.3854 13.0273 11.5312C13.8008 12.6484 14.1875 13.9089 14.1875 15.3125H12.8125C12.8125 13.7943 12.2682 12.5052 11.1797 11.4453C10.1198 10.3568 8.83073 9.8125 7.3125 9.8125C5.79427 9.8125 4.49089 10.3568 3.40234 11.4453C2.34245 12.5052 1.8125 13.7943 1.8125 15.3125H0.4375C0.4375 13.9089 0.824219 12.6484 1.59766 11.5312C2.37109 10.3854 3.38802 9.54036 4.64844 8.99609C3.98958 8.56641 3.45964 7.99349 3.05859 7.27734C2.6862 6.5612 2.5 5.80208 2.5 5C2.5 3.68229 2.97266 2.55078 3.91797 1.60547ZM9.71875 2.59375C9.0599 1.90625 8.25781 1.5625 7.3125 1.5625C6.36719 1.5625 5.55078 1.90625 4.86328 2.59375C4.20443 3.2526 3.875 4.05469 3.875 5C3.875 5.94531 4.20443 6.76172 4.86328 7.44922C5.55078 8.10807 6.36719 8.4375 7.3125 8.4375C8.25781 8.4375 9.0599 8.10807 9.71875 7.44922C10.4062 6.76172 10.75 5.94531 10.75 5C10.75 4.05469 10.4062 3.2526 9.71875 2.59375Z" fill="#202224"/>
</svg>
